REM DIRINDEX 1\2,1\3,1\4
REM DIRNAME cjc151,folder01,folder02,folder03
TITLE ""
FILE "151 151_Lesson 8_TOEFL_3900.mp3" MP3
  TRACK 01 AUDIO
    TITLE "4:cjc151_6574"
    INDEX 01 00:00:00
  TRACK 02 AUDIO
    TITLE "0:"
    INDEX 01 00:01:50
  TRACK 03 AUDIO
    TITLE "2:cjc151_6575"
    INDEX 01 00:02:30
  TRACK 04 AUDIO
    TITLE "0:"
    INDEX 01 00:03:35
  TRACK 05 AUDIO
    TITLE "3:cjc151_6576"
    INDEX 01 00:05:12
  TRACK 06 AUDIO
    TITLE "0:"
    INDEX 01 00:09:36
  TRACK 07 AUDIO
    TITLE "2:cjc151_6577"
    INDEX 01 00:11:17
  TRACK 08 AUDIO
    TITLE "0:"
    INDEX 01 00:12:40
  TRACK 09 AUDIO
    TITLE "3:cjc151_6578"
    INDEX 01 00:14:19
  TRACK 10 AUDIO
    TITLE "0:"
    INDEX 01 00:18:70
  TRACK 11 AUDIO
    TITLE "2:cjc151_6579"
    INDEX 01 00:20:49
  TRACK 12 AUDIO
    TITLE "0:"
    INDEX 01 00:23:34
  TRACK 13 AUDIO
    TITLE "3:cjc151_6580"
    INDEX 01 00:25:11
  TRACK 14 AUDIO
    TITLE "0:"
    INDEX 01 00:28:43
  TRACK 15 AUDIO
    TITLE "2:cjc151_6581"
    INDEX 01 00:30:20
  TRACK 16 AUDIO
    TITLE "0:"
    INDEX 01 00:31:27
  TRACK 17 AUDIO
    TITLE "3:cjc151_6582"
    INDEX 01 00:33:05
  TRACK 18 AUDIO
    TITLE "0:"
    INDEX 01 00:36:40
  TRACK 19 AUDIO
    TITLE "2:cjc151_6583"
    INDEX 01 00:38:20
  TRACK 20 AUDIO
    TITLE "0:"
    INDEX 01 00:39:43
  TRACK 21 AUDIO
    TITLE "3:cjc151_6584"
    INDEX 01 00:41:20
  TRACK 22 AUDIO
    TITLE "0:"
    INDEX 01 00:45:14
  TRACK 23 AUDIO
    TITLE "2:cjc151_6585"
    INDEX 01 00:46:68
  TRACK 24 AUDIO
    TITLE "0:"
    INDEX 01 00:48:24
  TRACK 25 AUDIO
    TITLE "3:cjc151_6586"
    INDEX 01 00:50:03
  TRACK 26 AUDIO
    TITLE "0:"
    INDEX 01 00:54:19
  TRACK 27 AUDIO
    TITLE "2:cjc151_6587"
    INDEX 01 00:55:69
  TRACK 28 AUDIO
    TITLE "0:"
    INDEX 01 00:57:09
  TRACK 29 AUDIO
    TITLE "3:cjc151_6588"
    INDEX 01 00:58:66
  TRACK 30 AUDIO
    TITLE "0:"
    INDEX 01 01:01:15
  TRACK 31 AUDIO
    TITLE "2:cjc151_6589"
    INDEX 01 01:02:69
  TRACK 32 AUDIO
    TITLE "0:"
    INDEX 01 01:03:71
  TRACK 33 AUDIO
    TITLE "3:cjc151_6590"
    INDEX 01 01:05:52
  TRACK 34 AUDIO
    TITLE "0:"
    INDEX 01 01:09:46
  TRACK 35 AUDIO
    TITLE "2:cjc151_6591"
    INDEX 01 01:11:23
  TRACK 36 AUDIO
    TITLE "0:"
    INDEX 01 01:12:32
  TRACK 37 AUDIO
    TITLE "3:cjc151_6592"
    INDEX 01 01:14:12
  TRACK 38 AUDIO
    TITLE "0:"
    INDEX 01 01:18:06
  TRACK 39 AUDIO
    TITLE "2:cjc151_6593"
    INDEX 01 01:19:54
  TRACK 40 AUDIO
    TITLE "0:"
    INDEX 01 01:20:65
  TRACK 41 AUDIO
    TITLE "3:cjc151_6594"
    INDEX 01 01:22:44
  TRACK 42 AUDIO
    TITLE "0:"
    INDEX 01 01:26:29
  TRACK 43 AUDIO
    TITLE "2:cjc151_6595"
    INDEX 01 01:28:04
  TRACK 44 AUDIO
    TITLE "0:"
    INDEX 01 01:29:31
  TRACK 45 AUDIO
    TITLE "3:cjc151_6596"
    INDEX 01 01:31:10
  TRACK 46 AUDIO
    TITLE "0:"
    INDEX 01 01:36:56
  TRACK 47 AUDIO
    TITLE "2:cjc151_6597"
    INDEX 01 01:38:36
  TRACK 48 AUDIO
    TITLE "0:"
    INDEX 01 01:39:43
  TRACK 49 AUDIO
    TITLE "3:cjc151_6598"
    INDEX 01 01:41:20
  TRACK 50 AUDIO
    TITLE "0:"
    INDEX 01 01:45:00
  TRACK 51 AUDIO
    TITLE "2:cjc151_6599"
    INDEX 01 01:46:55
  TRACK 52 AUDIO
    TITLE "0:"
    INDEX 01 01:47:70
  TRACK 53 AUDIO
    TITLE "3:cjc151_6600"
    INDEX 01 01:49:39
  TRACK 54 AUDIO
    TITLE "0:"
    INDEX 01 01:53:69
  TRACK 55 AUDIO
    TITLE "2:cjc151_6601"
    INDEX 01 01:55:50
  TRACK 56 AUDIO
    TITLE "0:"
    INDEX 01 01:56:65
  TRACK 57 AUDIO
    TITLE "3:cjc151_6602"
    INDEX 01 01:58:44
  TRACK 58 AUDIO
    TITLE "0:"
    INDEX 01 02:01:58
  TRACK 59 AUDIO
    TITLE "2:cjc151_6603"
    INDEX 01 02:03:38
  TRACK 60 AUDIO
    TITLE "0:"
    INDEX 01 02:04:59
  TRACK 61 AUDIO
    TITLE "3:cjc151_6604"
    INDEX 01 02:06:36
  TRACK 62 AUDIO
    TITLE "0:"
    INDEX 01 02:10:20
  TRACK 63 AUDIO
    TITLE "2:cjc151_6605"
    INDEX 01 02:11:72
  TRACK 64 AUDIO
    TITLE "0:"
    INDEX 01 02:13:01
  TRACK 65 AUDIO
    TITLE "3:cjc151_6606"
    INDEX 01 02:14:55
  TRACK 66 AUDIO
    TITLE "0:"
    INDEX 01 02:18:27
  TRACK 67 AUDIO
    TITLE "2:cjc151_6607"
    INDEX 01 02:20:09
  TRACK 68 AUDIO
    TITLE "0:"
    INDEX 01 02:21:08
  TRACK 69 AUDIO
    TITLE "3:cjc151_6608"
    INDEX 01 02:22:58
  TRACK 70 AUDIO
    TITLE "0:"
    INDEX 01 02:27:07
  TRACK 71 AUDIO
    TITLE "2:cjc151_6609"
    INDEX 01 02:28:59
  TRACK 72 AUDIO
    TITLE "0:"
    INDEX 01 02:29:72
  TRACK 73 AUDIO
    TITLE "3:cjc151_6610"
    INDEX 01 02:31:50
  TRACK 74 AUDIO
    TITLE "0:"
    INDEX 01 02:35:06
  TRACK 75 AUDIO
    TITLE "2:cjc151_6611"
    INDEX 01 02:36:60
  TRACK 76 AUDIO
    TITLE "0:"
    INDEX 01 02:37:62
  TRACK 77 AUDIO
    TITLE "3:cjc151_6612"
    INDEX 01 02:39:39
  TRACK 78 AUDIO
    TITLE "0:"
    INDEX 01 02:44:21
  TRACK 79 AUDIO
    TITLE "2:cjc151_6613"
    INDEX 01 02:45:67
  TRACK 80 AUDIO
    TITLE "0:"
    INDEX 01 02:47:02
  TRACK 81 AUDIO
    TITLE "3:cjc151_6614"
    INDEX 01 02:48:52
  TRACK 82 AUDIO
    TITLE "0:"
    INDEX 01 02:52:28
  TRACK 83 AUDIO
    TITLE "2:cjc151_6615"
    INDEX 01 02:54:02
  TRACK 84 AUDIO
    TITLE "0:"
    INDEX 01 02:55:05
  TRACK 85 AUDIO
    TITLE "3:cjc151_6616"
    INDEX 01 02:56:65
  TRACK 86 AUDIO
    TITLE "0:"
    INDEX 01 03:01:49
  TRACK 87 AUDIO
    TITLE "2:cjc151_6617"
    INDEX 01 03:03:26
  TRACK 88 AUDIO
    TITLE "0:"
    INDEX 01 03:04:51
  TRACK 89 AUDIO
    TITLE "3:cjc151_6618"
    INDEX 01 03:06:30
  TRACK 90 AUDIO
    TITLE "0:"
    INDEX 01 03:11:20
